<?xml version="1.0" encoding="UTF-8"?>
<svg version="1.1" viewBox="0 0 900 900" width="225" height="225" xmlns="http://www.w3.org/2000/svg">
<path transform="translate(0)" d="m0 0h900v900h-900z" fill="#010000"/>
<path transform="translate(0)" d="m0 0h900v900h-900zm431 59-23 2-28 4-32 7-26 8-21 8-26 12-19 10-21 13-17 12-17 13-12 11-2 1v2l-4 2-20 20v2h-2l-7 8-13 16-14 19-12 19-10 18-8 16-8 17-9 24-8 26-6 26-5 33-1 9-1 29v18l1 21 5 36 6 27 8 27 10 27 14 30 12 21 13 20 14 19 11 13 11 12 7 8 9 9 8 7 10 9 14 11 18 13 14 9 21 12 16 8 22 10 25 9 27 8 24 5 33 5 12 1h51l20-2 26-4 27-6 24-7 27-10 27-12 23-13 18-11 18-13 13-10 12-11 8-7 10-9 7-8 7-7 9-11 7-8 9-12 14-21 9-15 10-18 14-32 7-20 8-27 5-22 5-32 2-25v-35l-2-25-5-32-5-23-9-30-8-21-9-20-8-16-11-20-14-21-12-16-9-11-9-10-7-8-18-18-8-7-12-10-20-15-20-13-21-12-24-12-27-11-32-10-27-6-26-4-15-2-17-1z" fill="#FDFDFD"/>
<path transform="translate(221,347)" d="m0 0h8l9 3 5 6 2 12 11 4 8 6 12 5 10 1 7-3h5l-1 5-6 8-5 5-10 9-8 7-7 9-4 11 1 14 5 13 8 14 8 11 1 6-13-13-11-15-6-10-5-13v-14l5-13h-12l-6-3-4-4v-3l7 1h15l9-3 10-6 6-5h2v-3l-12-3-14-7-6-4-4 1-3 6 1 1h9l3 3-5 10-4 3h-8l1-2 7-3 3-6-19-1-9-4-5-6-1-3v-7l3-5 6-5 3-1h7l-1 4-4 2-1 4 3 1v10l5-2 7-8 1-6-3-7-3-2-10-1-13 4-6 5-3 6-5-2-5 1-3 4 2 4 3 4v2l-9-3-7-3-7-2-2-2-6 4-5 4-9 11-3 1v-8l-19 9-6 4-1 2 8-3 5-1-1 4-4 5-5 9 1 7 4 6 7 4h14l-1-3-7-3-1-2 11-1 5-5v-6l-5 1-4 3-3-1 4-4 2-10 10-9 7-8 2 1v5l8-2v-3l-7-2-1-3 2-1 8 3 2 1v2h2l-2 5-5 3-8 1 1 2 11 2-1 2h-15l-5-1-1 4 6 7 1 8-2 5v6l4 2 4 6 3 9-2 8-4 7-8 7-6 3-7 3 1 4 7 10 2 4 4 1-1-10 2-2 5 3 5-5 6-5 8-4-2-4v-3h7l16 4 6 3 5 4h2l1-3 4 2 19 13 11 8 7 4 15 13 5 4 6 10 3 6 2-4 2-10v-15l-2-12 5 5 4 13 1 7v16l-4 15-8 16-8 11-2 1v-15l-2-13-6-16-7-13-9-11-10-10-11-8-6-2-1 13h-3l-5-12-5-6-13-5h-16l-8 4h-2l-9 18-3 1-8-3v-2l-4-2-5-5v-2h-2l-5-7-3-9 1-5 4-4 15 1 2-3v-7l-5-9-3-2h-19l-1 8h-3l-6-7-6-14-4-8 1-9-2-7 3-5 9-7 13-8 18-8 12-7 18-6 15-2 12-6z" fill="#FDBF12"/>
<path transform="translate(637,425)" d="m0 0h11l8 3 5 6 2 6 1 21 2 6h6v-34l-3-5v-2h16l1 3 6-3 5-1h12l7 3 5 5 2 5 1 7 1 18 3 6v2l-6 1-17-1 1-3 3-2 1-3v-18l-3-8-2-1h-11l-5 4-2 5v17l2 5 2 4h-42l-3 1h-22l-7-3-4-5-1-2v-7l4-6 10-5 13-2h11l-2-6-16 1-14 4-4-1 5-12 4-2z" fill="#FDFDFD"/>
<path transform="translate(221,347)" d="m0 0h8l9 3 5 6 2 12 11 4 8 6 12 5 10 1 7-3h5l-1 5-6 8-5 5-10 9-8 7-7 9-4 11 1 14 5 13 8 14 8 11 1 6-13-13-11-15-6-10-5-13v-14l5-13h-12l-6-3-4-4v-3l7 1h15l9-3 10-6 6-5h2v-3l-12-3-14-7-6-4-4 1-3 6 1 1h9l3 3-5 10-4 3h-8l1-2 7-3 3-6-19-1-9-4-5-6-1-3v-7l3-5 6-5 3-1h7l-1 4-4 2-1 4 3 1v10l5-2 7-8 1-6-3-7-3-2-10-1-13 4-6 5-3 6-5-2-5 1-3 4 2 4 3 4v2l-9-3-7-3-7-2-2-2-6 4-5 4-9 11-3 1v-8l-19 9-10 7-4 3-1-2 3-5 9-7 13-8 18-8 12-7 18-6 15-2 12-6z" fill="#FDBF13"/>
<path transform="translate(500,411)" d="m0 0h19v53l3 5v2l-5 1-8-1-2-2-4 1-4 2h-18l-7-3-7-8-3-8v-10l4-9 7-6 8-3h11l11 3-2-11z" fill="#FDFDFD"/>
<path transform="translate(302,409)" d="m0 0h13l21 2-1 8-3 7-12-4-5-1h-12l-10 5-4 6-1 3v14l4 7 8 4h16l6-3 2-4v-6l-1-1h-22l2-6 3-5 2-1h31l1 2-1 32-11 2-10 2h-21l-10-3-8-6-4-5-3-9v-14l3-9 7-9 11-6z" fill="#FDFDFD"/>
<path transform="translate(368,425)" d="m0 0h11l10 3 6 5 4 8 1 4v8l-3 8-7 7-9 4h-19l-9-4-7-8-2-7 1-12 6-9 8-5z" fill="#FDFDFD"/>
<path transform="translate(520,425)" d="m0 0 22 1-3 5 1 6 8 17 2 1 3-10 6-14v-6l9 1h6l1 5 10 23 2-2 7-17-1-5-1-4h23l-8 14-12 25-2 6h-15l-3-8-8-18-2-1-1 6-8 21h-14l-2-2-4-10-14-28-2-2z" fill="#FDFDFD"/>
<path transform="translate(754,425)" d="m0 0h12l8 3 5 6 2 7 1 22 4 6 1 2h-15l-4-1-4 2h-24l-6-4-4-6v-8l4-6 10-4 23-3-1-5-16 1-17 5 1-7 3-8z" fill="#FDFDFD"/>
<path transform="translate(170,374)" d="m0 0 9 3 2 1v2h2l-2 5-5 3-8 1 1 2 11 2-1 2h-15l-5-1-1 4 6 7 1 8-2 5v6l4 2 4 6 3 9-2 8-4 7-8 7-6 3-7 3-2 3-2-4h-2l-1 2-2-6 1-5 4-4 15 1 2-3v-7l-5-9-3-2h-19l-1 8h-3l-6-7-6-14-4-8 1-9-1-5 7-6v2l8-3 5-1-1 4-4 5-5 9 1 7 4 6 7 4h14l-1-3-7-3-1-2 11-1 5-5v-6l-5 1-4 3-3-1 4-4 2-10 10-9 7-8 2 1v5l8-2v-3l-7-2-1-3z" fill="#FDBF13"/>
<path transform="translate(403,425)" d="m0 0 9 1h7l1 3 11-4h12l7 3 6 7 2 9 1 20 3 5v2l-5 1-17-1 3-6 1-9v-10l-2-9-4-1h-9l-6 4-2 5-1 13 3 9 2 4h-23l2-4 2-3v-30l-3-6z" fill="#FDFDFD"/>
<path transform="translate(221,347)" d="m0 0h8l5 1v2l-15 2-9 4-5 4-3 6-5-2-5 1-3 4 2 4 3 4v2l-9-3-7-3-7-2-2-2-6 4-5 4-9 11-3 1v-8l-19 9-10 7-4 3-1-2 3-5 9-7 13-8 18-8 12-7 18-6 15-2 12-6z" fill="#FDC014"/>
<path transform="translate(213,399)" d="m0 0h2l7 18v13l-4 8-9 9-5 3h-5l5-5 6-7 2-4-1-4-12 7h-3l2-5 1-3-15-2-7-4v-2l18-1 7-4 4-2 2-4z" fill="#FDBF12"/>
<path transform="translate(486,435)" d="m0 0h9l5 3 4 4 1 4v7l-4 6-7 4h-7l-6-4-3-4-1-9 3-7z" fill="#010000"/>
<path transform="translate(366,436)" d="m0 0h13l5 4 2 5v8l-4 6-5 3h-10l-6-3-3-6v-7l3-6z" fill="#010000"/>
<path transform="translate(561,384)" d="m0 0h7l1 5v11l1 5-3 5-4 2-5-1-8-9-9-5 1-7 5-5z" fill="#FDC015"/>
<path transform="translate(502,364)" d="m0 0 4 1 9 9 5 4-1 9-2 3-13-1-4 2h-8l-3-2v-7l8-11z" fill="#FDC115"/>
<path transform="translate(623,494)" d="m0 0 7 1 3 3 1 7-1 7-4 4-6 1-5-1 1-6-2-3v-9l3-3z" fill="#FDC31A"/>
<path transform="translate(405,489)" d="m0 0h15l3 2 1 8-3 4h-12v7l-4 1z" fill="#FED841"/>
<path transform="translate(704,494)" d="m0 0h6l5 4v10l-2 3-3 1h-7l-4-2-2-3-1-6 4-5z" fill="#FEDB46"/>
<path transform="translate(652,494)" d="m0 0h6l4 5v11l-3 2h-9l-3-3-1-2v-7l1-3z" fill="#FEDE4F"/>
<path transform="translate(756,494)" d="m0 0h6l4 3 1 6v8l-1 1h-11l-3-3-1-8 3-6z" fill="#FED63D"/>
<path transform="translate(231,428)" d="m0 0 2 1v8l6 14 11 16 2 4-5-2-15-15-3-6v-14z" fill="#FDBF12"/>
<path transform="translate(464,495)" d="m0 0h22l2 7v9h-3l-2-12-6-1v13h-4l-1-12h-6l-1 12h-4v-15z" fill="#FEE65C"/>
<path transform="translate(524,495)" d="m0 0h24l3 3v13l-4 1 1-13h-8l-1 12h-4l-1-12-7-1v14l-3-1-1-6v-9z" fill="#FDC218"/>
<path transform="translate(445,495)" d="m0 0h9l1 1v15h-12l-2-2v-10z" fill="#FEDE4E"/>
<path transform="translate(639,452)" d="m0 0h11l1 3-4 5-5 2-10 1-6-3-2-4 8-3z" fill="#010000"/>
<path transform="translate(720,495)" d="m0 0h10l5 1 2-1h7l3 5v11h-4v-11l-5-1-2 1-1 11h-4v-10l-1-2h-6l-1 12h-3l-1-11z" fill="#FDC014"/>
<path transform="translate(756,452)" d="m0 0h12v5l-3 3-6 2h-12l-4-3v-4z" fill="#010000"/>
<path transform="translate(504,339)" d="m0 0 7 1 3 5 5 4 1 3h-6l-4 5-4-1-3-5-1-9z" fill="#FDC31A"/>
<path transform="translate(491,340)" d="m0 0 5 1 3 4v8l-2 5-3 1-8-4 2-9z" fill="#FDC014"/>
<path transform="translate(394,542)" d="m0 0 8 1 4 3 1 8-4 4h-7l-2-2z" fill="#FDFDFD"/>
<path transform="translate(590,384)" d="m0 0 1 3-8 15-3 2-6 1v-9l4-7 10-2z" fill="#FDC41E"/>
<path transform="translate(491,542)" d="m0 0h4l1 13-4 3-6-1-3-2v-8l3-3z" fill="#FDFDFD"/>
<path transform="translate(201,393)" d="m0 0h3l-1 6-6 8-6 3h-10l-7-3-1-3h15l8-4z" fill="#FDBF12"/>
<path transform="translate(585,369)" d="m0 0h6v9l-3 5-2 1h-10l1-7 5-5z" fill="#FDC31A"/>
<path transform="translate(578,360)" d="m0 0h2l-1 7-5 8-7 1-2-3v-6l5-5z" fill="#FDBF12"/>
<path transform="translate(363,542)" d="m0 0 4 1 1 12-3 3h-6l-4-5 1-8z" fill="#FDFDFD"/>
<path transform="translate(677,489)" d="m0 0h2l2 6 9-1 3 5 1 11-3 2-2-2 1-7-2-4-7-1v13h-4z" fill="#FDC61F"/>
<path transform="translate(516,355)" d="m0 0h5l4 5v8l-2 4-5-1-5-8-1-3z" fill="#FDC218"/>
<path transform="translate(379,543)" d="m0 0h5l3 4v8l-5 3-5-1-2-2v-9z" fill="#FDFDFD"/>
<path transform="translate(558,366)" d="m0 0 4 1v7l-1 3-7 3h-7l2-8 6-5z" fill="#FDC219"/>
<path transform="translate(482,359)" d="m0 0 7 1 2 2v7l-3 6-5 1-2-2v-13z" fill="#FDC218"/>
<path transform="translate(727,544)" d="m0 0h6l2 1 1 9-1 3-7 1-4-3 1-9z" fill="#FDFDFD"/>
<path transform="translate(501,495)" d="m0 0 4 1 1 12h7l1-7v-6l4 1v14l-1 1h-13l-2-3-2-12z" fill="#FEE358"/>
<path transform="translate(777,544)" d="m0 0h5l2 2 1 6-3 6-6-1-3-2v-7z" fill="#FDFDFD"/>
<path transform="translate(690,544)" d="m0 0h7l2 3v9l-5 2-6-3v-9z" fill="#FDFDFD"/>
<path transform="translate(627,544)" d="m0 0h6l2 2v10l-3 2-4-1-4-3 1-9z" fill="#FDFDFD"/>
<path transform="translate(775,494)" d="m0 0h9l1 5 1 8-2 4-11 1-1-3 9-2 1-6-3-5-3 1 2 3v3l-5 1-2-1 1-7z" fill="#FDD032"/>
<path transform="translate(610,543)" d="m0 0 6 2 1 1v12l-3 4h-7l-1-3h7v-12h-5l-1 7 4-1-4 4-3-2v-7l2-4z" fill="#FDFDFD"/>
<path transform="translate(670,540)" d="m0 0h8l2 1 1 17-3-2-1-5-3-1 3-1-1-5h-4l1 8-2 4-3-1v-11z" fill="#FDFDFD"/>
<path transform="translate(575,495)" d="m0 0h3l1 11 3 3 5-1 1-13h3v15l-3 2h-7l-5-2-2-10z" fill="#FEDF4E"/>
<path transform="translate(598,495)" d="m0 0h11l2 2 1 4v11h-3l-1-14-7-1-2 15h-2l-1-3v-12z" fill="#FEE152"/>
<path transform="translate(705,497)" d="m0 0 5 1 3 5-2 5-5 2-5-3-1-5z" fill="#010000"/>
<path transform="translate(410,491)" d="m0 0h8l3 5-1 4-2 1h-9l-1-1v-8z" fill="#010000"/>
<path transform="translate(566,489)" d="m0 0h5l-1 3v20l-2 4-7 1 1-3 3-2z" fill="#FEDD4A"/>
<path transform="translate(449,540)" d="m0 0 4 2 4 10 1 4h-4l-3-10-1-1v5l-5 7-3-1 5-13z" fill="#FDFDFD"/>
<path transform="translate(623,497)" d="m0 0 5 1 1 1v8l-3 5h-3l-3-6v-7z" fill="#010000"/>
<path transform="translate(504,541)" d="m0 0 7 2 3 3 1 4v7h-3l-3-12-2-1-1 11-1 2-3-1v-12z" fill="#FDFDFD"/>
<path transform="translate(653,496)" d="m0 0 4 2 3 5v5l-6 2-4-2v-8z" fill="#010000"/>
<path transform="translate(415,544)" d="m0 0h7l2 2 1 4v7h-4l-2-10-2-1v9h2v2l-4 1-2-2 1-10z" fill="#FDFDFD"/>
<path transform="translate(141,468)" d="m0 0h2l7 8 5 7 2 6-4-2-5-5v-2h-2l-5-7z" fill="#FDC925"/>
<path transform="translate(130,382)" d="m0 0 3 1-2 4h-2v2l-11 7-5 4-1-2 3-5 9-7z" fill="#FDC722"/>
<path transform="translate(341,543)" d="m0 0 5 2 2 5v6l-2 2-4-1 2-5-2-7-2 1v9l-1 2-3-1 1-11z" fill="#FDFDFD"/>
<path transform="translate(524,544)" d="m0 0h6l2 4 1 8-4 2-1-7-1-5-2 4-1 7h-3l1-12z" fill="#FDFDFD"/>
<path transform="translate(757,497)" d="m0 0 5 1 2 9-2 2-5 1-1-1v-11z" fill="#010000"/>
<path transform="translate(435,494)" d="m0 0 2 1-1 3-4 2-1 10-4 1-1-4 2-10z" fill="#FEDD4B"/>
<path transform="translate(623,494)" d="m0 0 7 1 1 5-4-2-6 1v7l1 5-3-1-2-3v-9l3-3z" fill="#FED73F"/>
<path transform="translate(477,495)" d="m0 0h9l2 7v9h-3l-2-12-6-1-1 2-1-4z" fill="#FED73F"/>
<path transform="translate(494,488)" d="m0 0 3 1-1 7 1 7v8l-4 1v-23z" fill="#FEE45D"/>
<path transform="translate(638,488)" d="m0 0 4 2v20l-3 2-1-1z" fill="#FEE35B"/>
<path transform="translate(710,544)" d="m0 0 6 1 1 3v8l-4 2v-3l1-4-1-4-2 4v7l-3-1v-10z" fill="#FDFDFD"/>
<path transform="translate(170,374)" d="m0 0 9 3 2 1v2h2l-2 5-3 2h-7v-2l7-3-1-2-7-2-1-3z" fill="#FDC823"/>
<path transform="translate(705,495)" d="m0 0h7l3 3v10l-2 3h-8l2-2 3-1 2-5-3-5-5-1z" fill="#FEE358"/>
<path transform="translate(754,495)" d="m0 0h7l-4 3v13h-4l-2-6 1-7z" fill="#FEE057"/>
<path transform="translate(321,540)" d="m0 0 12 1 1 2-6 1v13l-3-1-1-11-3-3z" fill="#FDFDFD"/>
<path transform="translate(448,498)" d="m0 0 4 2 1 7-3 2-5-1v-7z" fill="#010000"/>
<path transform="translate(221,347)" d="m0 0h8l5 1v2l-15 2h-6l-1-3z" fill="#FEDC49"/>
<path transform="translate(756,544)" d="m0 0 3 1 3 7 3-8 2 1-1 5-3 7h-3l-4-8z" fill="#FDFDFD"/>
<path transform="translate(489,545)" d="m0 0 4 1-1 9-5 1-1-1v-7z" fill="#010000"/>
<path transform="translate(573,541)" d="m0 0h13l-2 4v8l-1 4h-2l-2-13-6-2z" fill="#FDFDFD"/>
<path transform="translate(523,496)" d="m0 0h8l-4 1v15l-3-1-1-6z" fill="#FEE35E"/>
<path transform="translate(575,495)" d="m0 0h3l1 11 3 3v2h-5l-2-3-1-12z" fill="#FEE458"/>
<path transform="translate(379,545)" d="m0 0 4 1 1 1v7l-4 2-3-3z" fill="#010000"/>
<path transform="translate(398,545)" d="m0 0 5 1 1 7-2 2-5-1z" fill="#010000"/>
<path transform="translate(360,545)" d="m0 0 4 1v9l-5 1-1-7z" fill="#010000"/>
<path transform="translate(598,495)" d="m0 0 3 2-2 15h-2l-1-3v-12z" fill="#FEE974"/>
<path transform="translate(145,458)" d="m0 0 7 1 1 4-3 2h-5l-2-5z" fill="#010000"/>
<path transform="translate(688,496)" d="m0 0h4l2 9v5l-3 2-2-2 1-7-3-6z" fill="#FEE152"/>
<path transform="translate(652,494)" d="m0 0h6l4 5v11l-6-12h-4l-1-2z" fill="#FED944"/>
<path transform="translate(783,503)" d="m0 0h2l1 4-2 4-11 1-1-3 9-2z" fill="#FEE050"/>
<path transform="translate(594,542)" d="m0 0h3l1 11-1 4h-3z" fill="#FDFDFD"/>
<path transform="translate(645,544)" d="m0 0h4l-2 8v4h-4v-11z" fill="#FDFDFD"/>
<path transform="translate(406,490)" d="m0 0h2l-1 13 2 7-4 1v-20z" fill="#FEE85F"/>
<path transform="translate(630,544)" d="m0 0 4 1 1 1v10l-3 2-4-1 4-1-1-9z" fill="#FDFDFD"/>
<path transform="translate(720,496)" d="m0 0h3v15h-3l-1-11z" fill="#FEEA69"/>
<path transform="translate(201,373)" d="m0 0h2l1 6-1 2-5 1-2-3 3-5z" fill="#FDBF12"/>
<path transform="translate(745,544)" d="m0 0 5 1-3 4v7h-3l-1-1v-8z" fill="#FDFDFD"/>
<path transform="translate(471,544)" d="m0 0 4 1 1 4v7h-4z" fill="#FDFDFD"/>
<path transform="translate(541,544)" d="m0 0 5 1-2 11h-3l-1-5z" fill="#FDFDFD"/>
<path transform="translate(537,497)" d="m0 0 2 1v13h-4v-12z" fill="#FEE559"/>
<path transform="translate(461,497)" d="m0 0h2l2 10v4h-4z" fill="#FEEA63"/>
<path transform="translate(692,545)" d="m0 0 4 4v6h-4l-1-1v-8z" fill="#010000"/>
<path transform="translate(731,499)" d="m0 0h4v12h-4z" fill="#FEDF4F"/>
<path transform="translate(729,546)" d="m0 0 3 1 1 9h-5v-7z" fill="#010000"/>
<path transform="translate(465,544)" d="m0 0h4l-2 12h-3v-9z" fill="#FDFDFD"/>
<path transform="translate(452,499)" d="m0 0 3 1v11h-7l4-4z" fill="#FEE458"/>
<path transform="translate(555,542)" d="m0 0 2 1v12l-3 1v-13z" fill="#FDFDFD"/>
<path transform="translate(744,498)" d="m0 0 3 2v11h-4v-12z" fill="#FEE458"/>
<path transform="translate(566,489)" d="m0 0h5l-3 13-2-1z" fill="#FDCB29"/>
<path transform="translate(618,497)" d="m0 0 2 3 2 11-3-1-2-3v-9z" fill="#FEDF4F"/>
<path transform="translate(123,387)" d="m0 0 2 1-5 4-6 8-2-2 3-5z" fill="#FEDF4F"/>
<path transform="translate(629,545)" d="m0 0 3 2v9h-4v-7z" fill="#010000"/>
<path transform="translate(778,547)" d="m0 0h3v9h-5z" fill="#010000"/>
<path transform="translate(445,495)" d="m0 0h9l1 5-6-1-2-2h-3z" fill="#FDC41B"/>
<path transform="translate(164,443)" d="m0 0 4 1v6l-4 1-1-6z" fill="#010000"/>
<path transform="translate(567,506)" d="m0 0 1 3v7l-7 1 1-3 3-2z" fill="#FDC319"/>
<path transform="translate(622,510)" d="m0 0 2 2v3l3-1 2 2-6 1-5-1 2-5z" fill="#FDBF12"/>
<path transform="translate(549,498)" d="m0 0h2v13l-4 1 1-3z" fill="#FEE254"/>
<path transform="translate(679,500)" d="m0 0h1l1 11h-4l1-9z" fill="#FEE65C"/>
<path transform="translate(464,495)" d="m0 0h9v1l-7 1-1 10h-1l-1-10-2-1z" fill="#FDBF12"/>
<path transform="translate(704,494)" d="m0 0h6v1l-5 1v2l-5 4-1-4 3-3z" fill="#FDC721"/>
<path transform="translate(405,489)" d="m0 0h13v2l-10 1v-2l-3 1z" fill="#FED53B"/>
</svg>
